<svg xmlns="http://www.w3.org/2000/svg" viewBox="0 0 800 600">
  <!-- Background -->
  <rect width="800" height="600" fill="#f8fafc"/>
  
  <!-- Building blocks -->
  <rect x="120" y="220" width="40" height="40" fill="#ef4444" stroke="#dc2626" stroke-width="2"/>
  <rect x="160" y="220" width="40" height="40" fill="#3b82f6" stroke="#2563eb" stroke-width="2"/>
  <rect x="140" y="180" width="40" height="40" fill="#10b981" stroke="#059669" stroke-width="2"/>
  <rect x="120" y="180" width="40" height="40" fill="#f59e0b" stroke="#d97706" stroke-width="2"/>
  <rect x="160" y="180" width="40" height="40" fill="#ef4444" stroke="#dc2626" stroke-width="2"/>
  
  <!-- Teddy bear -->
  <circle cx="280" cy="200" r="25" fill="#8b5a2b"/>
  <circle cx="270" cy="190" r="8" fill="#8b5a2b"/>
  <circle cx="290" cy="190" r="8" fill="#8b5a2b"/>
  <circle cx="275" cy="195" r="2" fill="#000"/>
  <circle cx="285" cy="195" r="2" fill="#000"/>
  <ellipse cx="280" cy="205" rx="3" ry="2" fill="#000"/>
  <circle cx="280" cy="240" r="20" fill="#8b5a2b"/>
  <circle cx="260" cy="250" r="10" fill="#8b5a2b"/>
  <circle cx="300" cy="250" r="10" fill="#8b5a2b"/>
  
  <!-- Balloon -->
  <circle cx="350" cy="160" r="20" fill="#ef4444"/>
  <line x1="350" y1="180" x2="350" y2="220" stroke="#000" stroke-width="2"/>
  <polygon points="345,215 355,215 350,225" fill="#f59e0b"/>
  
  <!-- Rocket -->
  <polygon points="480,120 460,220 500,220" fill="#e5e7eb"/>
  <polygon points="480,120 470,140 490,140" fill="#ef4444"/>
  <circle cx="480" cy="160" r="8" fill="#3b82f6"/>
  <polygon points="450,220 460,240 470,220" fill="#ef4444"/>
  <polygon points="490,220 500,240 510,220" fill="#f59e0b"/>
  <ellipse cx="475" cy="235" rx="15" ry="8" fill="#06b6d4"/>
  
  <!-- Stars -->
  <polygon points="420,140 422,146 428,146 423,150 425,156 420,152 415,156 417,150 412,146 418,146" fill="#f59e0b"/>
  <polygon points="520,180 522,186 528,186 523,190 525,196 520,192 515,196 517,190 512,186 518,186" fill="#f59e0b"/>
  
  <!-- Text: KIDS TOYS -->
  <text x="100" y="350" font-family="Arial, sans-serif" font-size="80" font-weight="bold" fill="#ef4444">K</text>
  <text x="160" y="350" font-family="Arial, sans-serif" font-size="80" font-weight="bold" fill="#3b82f6">I</text>
  <text x="200" y="350" font-family="Arial, sans-serif" font-size="80" font-weight="bold" fill="#10b981">D</text>
  <text x="260" y="350" font-family="Arial, sans-serif" font-size="80" font-weight="bold" fill="#8b5a2b">S</text>
  
  <text x="380" y="350" font-family="Arial, sans-serif" font-size="80" font-weight="bold" fill="#ef4444">T</text>
  <text x="440" y="350" font-family="Arial, sans-serif" font-size="80" font-weight="bold" fill="#f59e0b">O</text>
  <text x="520" y="350" font-family="Arial, sans-serif" font-size="80" font-weight="bold" fill="#8b5a2b">Y</text>
  <text x="580" y="350" font-family="Arial, sans-serif" font-size="80" font-weight="bold" fill="#10b981">S</text>
  
  <!-- Text: BANGLADESH -->
  <text x="120" y="420" font-family="Arial, sans-serif" font-size="50" font-weight="bold" fill="#ef4444">B</text>
  <text x="170" y="420" font-family="Arial, sans-serif" font-size="50" font-weight="bold" fill="#f59e0b">A</text>
  <text x="220" y="420" font-family="Arial, sans-serif" font-size="50" font-weight="bold" fill="#10b981">N</text>
  <text x="270" y="420" font-family="Arial, sans-serif" font-size="50" font-weight="bold" fill="#3b82f6">G</text>
  <text x="320" y="420" font-family="Arial, sans-serif" font-size="50" font-weight="bold" fill="#8b5a2b">L</text>
  <text x="370" y="420" font-family="Arial, sans-serif" font-size="50" font-weight="bold" fill="#f59e0b">A</text>
  <text x="420" y="420" font-family="Arial, sans-serif" font-size="50" font-weight="bold" fill="#ef4444">D</text>
  <text x="470" y="420" font-family="Arial, sans-serif" font-size="50" font-weight="bold" fill="#10b981">E</text>
  <text x="520" y="420" font-family="Arial, sans-serif" font-size="50" font-weight="bold" fill="#3b82f6">S</text>
  <text x="570" y="420" font-family="Arial, sans-serif" font-size="50" font-weight="bold" fill="#8b5a2b">H</text>
  
  <!-- Train -->
  <rect x="200" y="480" width="40" height="25" fill="#8b5a2b"/>
  <rect x="240" y="480" width="40" height="25" fill="#f59e0b"/>
  <rect x="280" y="480" width="40" height="25" fill="#3b82f6"/>
  <rect x="320" y="480" width="40" height="25" fill="#10b981"/>
  <circle cx="215" cy="510" r="8" fill="#374151"/>
  <circle cx="255" cy="510" r="8" fill="#374151"/>
  <circle cx="295" cy="510" r="8" fill="#374151"/>
  <circle cx="335" cy="510" r="8" fill="#374151"/>
  <rect x="185" y="470" width="20" height="15" fill="#ef4444"/>
</svg>
